<svg xmlns="http://www.w3.org/2000/svg" xmlns:xlink="http://www.w3.org/1999/xlink" viewBox="0,0,256,256" width="100px" height="100px"><g fill="#6c6c6c" fill-rule="nonzero" stroke="none" stroke-width="1" stroke-linecap="butt" stroke-linejoin="miter" stroke-miterlimit="10" stroke-dasharray="" stroke-dashoffset="0" font-family="none" font-weight="none" font-size="none" text-anchor="none" style="mix-blend-mode: normal"><g transform="scale(2.56,2.56)"><path d="M18,13c-2.757,0 -5,2.243 -5,5v51c0,2.757 2.243,5 5,5h31.31445l4.74414,13.33594c0.142,0.398 0.51841,0.66406 0.94141,0.66406h29c2.757,0 5,-2.243 5,-5v-51c0,-2.757 -2.243,-5 -5,-5h-32.5332l-4.51953,-13.32031c-0.138,-0.406 -0.51927,-0.67969 -0.94727,-0.67969zM18,15h27.14453l6.51758,18.9043c0.072,0.207 0.26466,0.33789 0.47266,0.33789c0.054,0 0.11006,-0.00934 0.16406,-0.02734c0.261,-0.09 0.39859,-0.37572 0.30859,-0.63672l-1.57812,-4.57812h32.9707c1.654,0 3,1.346 3,3v51c0,1.654 -1.346,3 -3,3h-27.6582l3.1582,-4.36133c0.162,-0.223 0.11267,-0.53722 -0.11133,-0.69922c-0.225,-0.161 -0.53627,-0.11272 -0.69727,0.11328l-3.18359,4.39258l-4.42578,-12.44531h13.43945l-3.12305,4.31055c-0.162,0.223 -0.11267,0.53722 0.11133,0.69922c0.224,0.159 0.53527,0.11172 0.69727,-0.11328l3.69727,-5.10352c0.00595,-0.00821 0.00437,-0.01888 0.00977,-0.02734c0.0796,-0.12442 0.11044,-0.27738 0.05859,-0.42773l-1.98828,-5.76367c1.48314,-1.06065 2.91251,-2.2595 4.25391,-3.58594c2.575,2.738 5.61588,5.45966 9.04688,8.09766c0.088,0.068 0.19469,0.10352 0.30469,0.10352c0.022,0 0.04245,-0.00091 0.06445,-0.00391c0.132,-0.017 0.25103,-0.08836 0.33203,-0.19336l1.82031,-2.37891c0.168,-0.219 0.1272,-0.53122 -0.0918,-0.69922c-3.312,-2.548 -6.26144,-5.21001 -8.77344,-7.91602c2.377,-2.986 4.95664,-7.70505 6.55664,-11.99805h4.50195c0.276,0 0.5,-0.224 0.5,-0.5v-3c0,-0.276 -0.224,-0.5 -0.5,-0.5h-11.5v-2.5c0,-0.276 -0.224,-0.5 -0.5,-0.5h-3c-0.276,0 -0.5,0.224 -0.5,0.5v2.5h-10.30078l-2.23633,-6.48242c-0.091,-0.261 -0.37572,-0.40155 -0.63672,-0.31055c-0.261,0.09 -0.39859,0.37472 -0.30859,0.63672l2.34961,6.80859c0.00103,0.00317 -0.00109,0.00661 0,0.00977l0.53125,1.5332l5.98633,17.35547c0.00123,0.00387 0.00062,0.00786 0.00195,0.01172l1.03125,2.99023c0.00097,0.00282 0.00289,0.00502 0.00391,0.00781l1.87695,5.43945h-14.7793h-0.51953h-31.5c-1.654,0 -3,-1.346 -3,-3v-51c0,-1.654 1.346,-3 3,-3zM34.05078,30.15039c-0.21,0 -0.3907,0.13055 -0.4707,0.31055l-9.54102,23.62891c-0.06,0.15 -0.03922,0.32094 0.05078,0.46094c0.09,0.14 0.24992,0.21875 0.41992,0.21875h3.38086c0.21,0 0.38875,-0.13031 0.46875,-0.32031l2.04102,-5.38867h10.5l2.08008,5.38867c0.07,0.2 0.25898,0.32031 0.45898,0.32031h3.39063c0.16,0 0.32016,-0.07875 0.41016,-0.21875c0.09,-0.14 0.10883,-0.31094 0.04883,-0.46094l-9.53906,-23.62891c-0.08,-0.18 -0.26094,-0.31055 -0.46094,-0.31055zM34.38086,31.15039h2.56836l9.14063,22.61914h-2.30078l-2.07812,-5.38867c-0.07,-0.19 -0.26094,-0.32031 -0.46094,-0.32031h-11.19922c-0.21,0 -0.3907,0.13031 -0.4707,0.32031l-2.04102,5.38867h-2.28906zM35.66992,33.16016c-0.1,0 -0.19945,0.02547 -0.2832,0.07422c-0.08375,0.04875 -0.1525,0.11984 -0.1875,0.21484l-4.60937,12.31055c-0.03,0.08 -0.0393,0.16344 -0.0293,0.24219c0.01,0.07875 0.03984,0.15375 0.08984,0.21875c0.045,0.07 0.10383,0.12461 0.17383,0.16211c0.07,0.0375 0.15133,0.05664 0.23633,0.05664h9.21875c0.16,0 0.31016,-0.07875 0.41016,-0.21875c0.09,-0.13 0.11078,-0.30094 0.05078,-0.46094l-4.60937,-12.31055c-0.07,-0.19 -0.27094,-0.28906 -0.46094,-0.28906zM35.66992,35.06055l3.88086,10.37891h-7.77148zM67.5,42h2v2.5c0,0.276 0.224,0.5 0.5,0.5h11.5v2h-4.34961c-0.211,0 -0.3997,0.13208 -0.4707,0.33008c-1.614,4.448 -4.34016,9.42009 -6.78516,12.37109c-0.159,0.192 -0.15238,0.47225 0.01563,0.65625c2.515,2.75 5.47378,5.45492 8.80078,8.04492l-1.21289,1.58398c-3.381,-2.63 -6.36786,-5.33764 -8.88086,-8.05664c-0.092,-0.099 -0.22237,-0.15816 -0.35938,-0.16016h-0.00781c-0.134,0 -0.26347,0.05339 -0.35547,0.15039c-1.335,1.359 -2.76105,2.59278 -4.24805,3.67578l-0.69531,-2.01562c1.263,-0.969 2.4932,-2.061 3.6582,-3.25c0.179,-0.183 0.19134,-0.47292 0.02734,-0.66992c-3.061,-3.675 -4.421,-6.3387 -4.875,-7.3457l1.87695,-0.71094c0.463,0.97 1.70114,3.28511 4.24414,6.41211c0.095,0.118 0.23867,0.18555 0.38867,0.18555c0.151,0 0.29172,-0.06855 0.38672,-0.18555c2.459,-3.034 4.38938,-6.51656 5.73438,-10.35156c0.054,-0.152 0.02955,-0.32113 -0.06445,-0.45312c-0.094,-0.133 -0.2462,-0.21094 -0.4082,-0.21094h-16.68555l-0.69141,-2h10.45703c0.276,0 0.5,-0.224 0.5,-0.5zM57.57813,47.99805h15.62891c-1.217,3.261 -2.87645,6.25139 -4.93945,8.90039c-2.684,-3.391 -3.71392,-5.6713 -3.91992,-6.1543c-0.115,-0.229 -0.385,-0.32919 -0.625,-0.24219l-2.80078,1.06055c-0.25,0.095 -0.38088,0.37 -0.29687,0.625c0.01,0.03 1.07117,3.01872 4.95117,7.76172c-0.9544,0.95015 -1.95455,1.81593 -2.97461,2.61523z"></path></g></g></svg>